HIERARCHY
ROOT Hips
{
    OFFSET 0.000000 0.000000 0.000000
    CHANNELS 6 Xposition Yposition Zposition Zrotation Yrotation Xrotation
    JOINT Chest
    {
        OFFSET 0.000000 1.634758 -0.000000
        CHANNELS 3 Zrotation Yrotation Xrotation
        JOINT Chest2
        {
            OFFSET 0.000000 2.197341 0.000000
            CHANNELS 3 Zrotation Yrotation Xrotation
            JOINT Neck
            {
                OFFSET 0.000000 0.961544 0.000000
                CHANNELS 3 Zrotation Yrotation Xrotation
                JOINT Head
                {
                    OFFSET 0.000000 0.632542 -0.032565
                    CHANNELS 3 Zrotation Yrotation Xrotation
                    End Site
                    {
                        OFFSET -0.000001 0.439502 2.922845
                    }
                }
            }
            JOINT LeftCollar
            {
                OFFSET 0.167536 0.778237 -0.168280
                CHANNELS 3 Zrotation Yrotation Xrotation
                JOINT LeftShoulder
                {
                    OFFSET 0.831514 -0.002900 0.006458
                    CHANNELS 3 Zrotation Yrotation Xrotation
                    JOINT LeftElbow
                    {
                        OFFSET 2.272872 -0.026639 0.059314
                        CHANNELS 3 Zrotation Yrotation Xrotation
                        JOINT LeftWrist
                        {
                            OFFSET 2.081982 -0.024402 0.054333
                            CHANNELS 3 Zrotation Yrotation Xrotation
                            JOINT LeftHandThumb1
                            {
                                OFFSET 0.218903 -0.128645 0.283837
                                CHANNELS 3 Zrotation Yrotation Xrotation
                                JOINT LeftHandThumb2
                                {
                                    OFFSET 0.137157 -0.025101 0.077902
                                    CHANNELS 3 Zrotation Yrotation Xrotation
                                    JOINT LeftHandThumb3
                                    {
                                        OFFSET 0.167119 -0.074446 0.008275
                                        CHANNELS 3 Zrotation Yrotation Xrotation
                                        End Site
                                        {
                                            OFFSET 0.254644 -0.056200 0.061920
                                        }
                                    }
                                }
                            }
                            JOINT LeftHandFore1
                            {
                                OFFSET 0.767340 -0.016076 0.196678
                                CHANNELS 3 Zrotation Yrotation Xrotation
                                JOINT LeftHandFore2
                                {
                                    OFFSET 0.204052 -0.072948 -0.006071
                                    CHANNELS 3 Zrotation Yrotation Xrotation
                                    JOINT LeftHandFore3
                                    {
                                        OFFSET 0.112767 -0.063606 0.000847
                                        CHANNELS 3 Zrotation Yrotation Xrotation
                                        End Site
                                        {
                                            OFFSET 0.139034 -0.134096 0.007381
                                        }
                                    }
                                }
                            }
                            JOINT LeftHandMiddle1
                            {
                                OFFSET 0.709887 -0.008320 0.018526
                                CHANNELS 3 Zrotation Yrotation Xrotation
                                JOINT LeftHandMiddle2
                                {
                                    OFFSET 0.226796 -0.092498 0.008451
                                    CHANNELS 3 Zrotation Yrotation Xrotation
                                    JOINT LeftHandMiddle3
                                    {
                                        OFFSET 0.091433 -0.113929 0.006585
                                        CHANNELS 3 Zrotation Yrotation Xrotation
                                        End Site
                                        {
                                            OFFSET 0.101660 -0.212566 0.010548
                                        }
                                    }
                                }
                            }
                            JOINT LeftHandRing1
                            {
                                OFFSET 0.743817 -0.005823 -0.153668
                                CHANNELS 3 Zrotation Yrotation Xrotation
                                JOINT LeftHandRing2
                                {
                                    OFFSET 0.328910 -0.128288 -0.009693
                                    CHANNELS 3 Zrotation Yrotation Xrotation
                                    JOINT LeftHandRing3
                                    {
                                        OFFSET 0.082298 -0.108768 0.001408
                                        CHANNELS 3 Zrotation Yrotation Xrotation
                                        End Site
                                        {
                                            OFFSET 0.031282 -0.115934 -0.000545
                                        }
                                    }
                                }
                            }
                            JOINT LeftHandLittle1
                            {
                                OFFSET 0.689408 -0.053302 -0.308304
                                CHANNELS 3 Zrotation Yrotation Xrotation
                                JOINT LeftHandLittle2
                                {
                                    OFFSET 0.180508 -0.071312 -0.019638
                                    CHANNELS 3 Zrotation Yrotation Xrotation
                                    JOINT LeftHandLittle3
                                    {
                                        OFFSET 0.075919 -0.093133 -0.007671
                                        CHANNELS 3 Zrotation Yrotation Xrotation
                                        End Site
                                        {
                                            OFFSET 0.145774 -0.120829 0.020949
                                        }
                                    }
                                }
                            }
                        }
                    }
                }
            }
            JOINT RightCollar
            {
                OFFSET -0.167536 0.778237 -0.168280
                CHANNELS 3 Zrotation Yrotation Xrotation
                JOINT RightShoulder
                {
                    OFFSET -0.831514 -0.002900 0.006457
                    CHANNELS 3 Zrotation Yrotation Xrotation
                    JOINT RightElbow
                    {
                        OFFSET -2.272872 -0.026639 0.059313
                        CHANNELS 3 Zrotation Yrotation Xrotation
                        JOINT RightWrist
                        {
                            OFFSET -2.081982 -0.024402 0.054331
                            CHANNELS 3 Zrotation Yrotation Xrotation
                            JOINT RightHandThumb1
                            {
                                OFFSET -0.218911 -0.128571 0.283837
                                CHANNELS 3 Zrotation Yrotation Xrotation
                                JOINT RightHandThumb2
                                {
                                    OFFSET -0.137157 -0.025101 0.077902
                                    CHANNELS 3 Zrotation Yrotation Xrotation
                                    JOINT RightHandThumb3
                                    {
                                        OFFSET -0.158237 -0.090258 0.018818
                                        CHANNELS 3 Zrotation Yrotation Xrotation
                                        End Site
                                        {
                                            OFFSET -0.225608 -0.107946 0.096359
                                        }
                                    }
                                }
                            }
                            JOINT RightHandFore1
                            {
                                OFFSET -0.767344 -0.015991 0.196679
                                CHANNELS 3 Zrotation Yrotation Xrotation
                                JOINT RightHandFore2
                                {
                                    OFFSET -0.204072 -0.072902 -0.006075
                                    CHANNELS 3 Zrotation Yrotation Xrotation
                                    JOINT RightHandFore3
                                    {
                                        OFFSET -0.112504 -0.063730 -0.006599
                                        CHANNELS 3 Zrotation Yrotation Xrotation
                                        End Site
                                        {
                                            OFFSET -0.138320 -0.134483 -0.012186
                                        }
                                    }
                                }
                            }
                            JOINT RightHandMiddle1
                            {
                                OFFSET -0.709887 -0.008302 0.018525
                                CHANNELS 3 Zrotation Yrotation Xrotation
                                JOINT RightHandMiddle2
                                {
                                    OFFSET -0.226783 -0.092519 0.008452
                                    CHANNELS 3 Zrotation Yrotation Xrotation
                                    JOINT RightHandMiddle3
                                    {
                                        OFFSET -0.091548 -0.114003 0.002603
                                        CHANNELS 3 Zrotation Yrotation Xrotation
                                        End Site
                                        {
                                            OFFSET -0.101916 -0.212692 0.002327
                                        }
                                    }
                                }
                            }
                            JOINT RightHandRing1
                            {
                                OFFSET -0.743819 -0.005785 -0.153669
                                CHANNELS 3 Zrotation Yrotation Xrotation
                                JOINT RightHandRing2
                                {
                                    OFFSET -0.328919 -0.128264 -0.009692
                                    CHANNELS 3 Zrotation Yrotation Xrotation
                                    JOINT RightHandRing3
                                    {
                                        OFFSET -0.082056 -0.108424 -0.010766
                                        CHANNELS 3 Zrotation Yrotation Xrotation
                                        End Site
                                        {
                                            OFFSET -0.031136 -0.115741 -0.007408
                                        }
                                    }
                                }
                            }
                            JOINT RightHandLittle1
                            {
                                OFFSET -0.689403 -0.053298 -0.308303
                                CHANNELS 3 Zrotation Yrotation Xrotation
                                JOINT RightHandLittle2
                                {
                                    OFFSET -0.180512 -0.071308 -0.019638
                                    CHANNELS 3 Zrotation Yrotation Xrotation
                                    JOINT RightHandLittle3
                                    {
                                        OFFSET -0.075033 -0.092120 -0.019479
                                        CHANNELS 3 Zrotation Yrotation Xrotation
                                        End Site
                                        {
                                            OFFSET -0.139496 -0.113738 -0.062393
                                        }
                                    }
                                }
                            }
                        }
                    }
                }
            }
        }
    }
    JOINT LeftHip
    {
        OFFSET 0.685143 0.673822 -0.044491
        CHANNELS 3 Zrotation Yrotation Xrotation
        JOINT LeftKnee
        {
            OFFSET 0.085364 -3.750208 0.017676
            CHANNELS 3 Zrotation Yrotation Xrotation
            JOINT LeftAnkle
            {
                OFFSET 0.094583 -4.155206 0.019585
                CHANNELS 3 Zrotation Yrotation Xrotation
                JOINT LeftToe
                {
                    OFFSET -0.000000 -0.395925 0.621478
                    CHANNELS 3 Zrotation Yrotation Xrotation
                    End Site
                    {
                        OFFSET -0.000000 -0.077878 0.321152
                    }
                }
            }
        }
    }
    JOINT RightHip
    {
        OFFSET -0.685143 0.673822 -0.044492
        CHANNELS 3 Zrotation Yrotation Xrotation
        JOINT RightKnee
        {
            OFFSET -0.085364 -3.750208 0.017677
            CHANNELS 3 Zrotation Yrotation Xrotation
            JOINT RightAnkle
            {
                OFFSET -0.094583 -4.155206 0.019585
                CHANNELS 3 Zrotation Yrotation Xrotation
                JOINT RightToe
                {
                    OFFSET -0.000000 -0.395925 0.621478
                    CHANNELS 3 Zrotation Yrotation Xrotation
                    End Site
                    {
                        OFFSET -0.000000 -0.077878 0.321152
                    }
                }
            }
        }
    }
}
MOTION
Frames: 4
Frame Time: 0.033333
-0.209046 8.328012 0.069333 175.816437 2.836720 -171.968719 -4.542125 2.216849 -11.794639 0.022003 -0.345402 -3.645326 0.000003 0.346099 4.684103 0.000005 -0.000009 11.067137 -14.490381 1.196494 -0.083599 -58.272449 7.119590 0.012990 0.008547 -9.407578 -0.111197 3.440903 -0.463123 -4.455534 0.000001 0.000001 0.000000 -0.000002 0.000003 -0.000002 0.000001 -0.000003 -0.000001 0.000000 -0.000002 0.000000 -0.000003 -0.000001 -0.000001 -0.000003 -0.000001 -0.000002 0.000004 -0.000003 0.000001 -0.000003 0.000001 -0.000003 -0.000005 -0.000002 -0.000002 -0.000001 -0.000001 -0.000001 0.000003 -0.000000 -0.000001 -0.000005 -0.000000 0.000001 0.000000 -0.000001 0.000000 0.000000 -0.000000 -0.000002 0.000004 -0.000002 -0.000001 14.650119 0.473504 0.087042 61.664398 -12.400229 1.363694 -0.082828 27.382320 -0.347316 -2.281923 0.140680 -1.305030 -0.000005 -0.000005 -0.000003 0.000003 -0.000002 0.000001 -0.000003 0.000002 0.000001 0.000001 -0.000005 0.000001 -0.000001 -0.000000 -0.000001 0.000003 -0.000000 0.000002 -0.000002 -0.000005 0.000000 -0.000006 -0.000000 -0.000000 0.000002 -0.000000 -0.000001 -0.000000 -0.000003 0.000001 -0.000001 -0.000005 0.000001 -0.000001 0.000003 0.000001 0.000002 -0.000005 0.000001 -0.000001 -0.000003 -0.000002 0.000004 0.000002 -0.000001 -14.975800 -1.402827 -12.549918 0.011142 0.170085 7.493532 3.359916 -2.125456 107.991943 -7.565855 -5.034582 42.916080 6.994889 -5.398584 -19.783302 -0.097671 -0.495224 22.316500 -18.346197 -0.265115 96.139214 -8.872886 -5.393695 45.315983
-0.208497 8.328012 0.068878 175.816422 2.836727 -171.968704 -4.546062 2.214938 -11.795305 0.017712 -0.344749 -3.645826 0.000010 0.345422 4.683856 -0.000019 0.000460 11.066649 -14.489761 1.190697 -0.083375 -58.270687 7.126678 0.018371 0.008636 -9.455927 -0.111778 3.423448 -0.456268 -3.887337 -0.000005 0.000003 -0.000004 -0.000004 -0.000004 0.000001 -0.000001 0.000002 0.000000 0.000000 -0.000006 -0.000003 -0.000000 0.000002 0.000001 -0.000004 -0.000000 -0.000001 -0.000001 -0.000006 -0.000003 0.000002 0.000001 0.000001 0.000002 -0.000003 -0.000001 -0.000003 -0.000004 -0.000004 0.000002 -0.000000 0.000000 -0.000004 -0.000000 -0.000000 0.000001 -0.000003 -0.000004 0.000004 -0.000001 -0.000001 0.000002 0.000001 -0.000000 14.650375 0.473351 0.086812 61.675064 -12.417085 1.365816 -0.083109 27.423149 -0.347921 -2.223532 0.128351 -1.221883 -0.000003 0.000005 0.000002 0.000001 -0.000003 -0.000001 0.000001 -0.000000 -0.000000 -0.000000 0.000009 0.000001 0.000001 0.000003 -0.000001 -0.000000 -0.000002 0.000001 -0.000001 0.000005 -0.000001 -0.000002 0.000002 -0.000001 0.000001 -0.000000 -0.000001 -0.000001 0.000005 0.000002 -0.000001 0.000002 -0.000001 -0.000002 0.000002 0.000001 0.000006 0.000009 -0.000000 -0.000004 -0.000000 -0.000001 0.000004 0.000002 -0.000000 -14.972603 -1.403040 -12.559155 0.011213 0.170635 7.517877 3.357330 -2.124623 107.975731 -7.565859 -5.034748 42.915237 6.999819 -5.405440 -19.771633 -0.097537 -0.494893 22.300783 -18.337847 -0.256679 96.151138 -8.855192 -5.382898 45.315208
-0.206886 8.328012 0.067541 175.816422 2.836727 -171.968704 -4.557545 2.209337 -11.797188 0.005167 -0.342838 -3.647291 0.000032 0.343431 4.683105 -0.000089 0.001814 11.065223 -14.487897 1.173703 -0.082742 -58.265614 7.144518 0.034154 0.008905 -9.591485 -0.113410 3.367976 -0.435138 -2.398481 -0.000001 0.000003 -0.000004 0.000000 0.000001 0.000002 0.000000 0.000001 -0.000006 0.000009 -0.000003 -0.000009 -0.000002 -0.000001 0.000000 -0.000003 0.000001 -0.000001 0.000010 -0.000007 -0.000008 0.000000 -0.000000 0.000001 -0.000005 0.000002 0.000001 0.000002 -0.000003 -0.000007 0.000004 -0.000002 -0.000000 0.000000 -0.000001 0.000001 0.000009 -0.000003 -0.000007 0.000005 -0.000002 -0.000001 0.000004 -0.000003 -0.000001 14.651121 0.472902 0.086120 61.706253 -12.466856 1.372071 -0.083929 27.543547 -0.349709 -2.053650 0.092483 -0.980157 0.000000 -0.000002 0.000003 -0.000001 0.000002 0.000002 0.000002 -0.000002 0.000001 -0.000002 0.000005 0.000001 0.000004 -0.000000 0.000001 -0.000002 -0.000000 -0.000002 0.000002 -0.000000 0.000003 -0.000005 0.000002 -0.000001 0.000003 0.000002 0.000000 0.000004 -0.000003 0.000004 -0.000001 0.000003 0.000001 -0.000002 0.000002 -0.000000 0.000009 -0.000005 0.000004 -0.000003 0.000002 -0.000001 0.000003 0.000003 -0.000000 -14.963230 -1.403669 -12.586041 0.011427 0.172241 7.589049 3.349764 -2.122192 107.928291 -7.565854 -5.035227 42.912720 7.014304 -5.425521 -19.737181 -0.097137 -0.493916 22.254412 -18.313240 -0.231897 96.186150 -8.803310 -5.351174 45.313274
-0.204268 8.328012 0.065363 175.816422 2.836727 -171.968704 -4.576132 2.200271 -11.800212 -0.015140 -0.339747 -3.649638 0.000067 0.340195 4.681859 -0.000201 0.003979 11.062840 -14.484951 1.146129 -0.081710 -58.257233 7.170708 0.059737 0.009315 -9.805835 -0.115993 3.269726 -0.399094 -0.312655 -0.000002 0.000003 0.000000 -0.000003 0.000002 0.000000 -0.000002 -0.000002 -0.000003 0.000011 -0.000008 -0.000006 -0.000002 0.000001 0.000000 0.000001 -0.000001 -0.000001 0.000006 -0.000009 -0.000006 -0.000000 0.000001 0.000001 -0.000002 -0.000000 0.000000 -0.000003 -0.000007 -0.000006 0.000003 -0.000002 0.000000 0.000001 0.000001 -0.000001 0.000013 -0.000005 -0.000005 0.000005 0.000001 -0.000000 0.000007 -0.000002 0.000000 14.652182 0.472192 0.085007 61.756889 -12.548214 1.382211 -0.085264 27.740210 -0.352639 -1.780231 0.034761 -0.591608 -0.000004 -0.000000 0.000002 0.000004 -0.000003 -0.000001 0.000001 0.000003 -0.000003 -0.000007 -0.000005 -0.000000 0.000002 -0.000000 0.000001 -0.000002 -0.000000 0.000001 -0.000001 -0.000003 -0.000001 -0.000003 0.000002 -0.000000 -0.000002 -0.000002 -0.000001 0.000002 -0.000012 0.000001 -0.000002 -0.000000 -0.000001 -0.000003 -0.000000 -0.000001 0.000008 -0.000003 -0.000002 -0.000003 -0.000000 -0.000001 0.000006 0.000005 -0.000001 -14.948062 -1.404674 -12.628874 0.011773 0.174815 7.703170 3.337499 -2.118298 107.851944 -7.565831 -5.036005 42.908566 7.037828 -5.458103 -19.681160 -0.096488 -0.492327 22.179028 -18.273050 -0.191579 96.242943 -8.718900 -5.299634 45.309811
